<svg width="152" height="382" viewBox="0 0 152 382" fill="none" xmlns="http://www.w3.org/2000/svg">
<rect x="27.8809" y="44.0872" width="96.7051" height="337.726" fill="#E24444"/>
<rect x="27.8809" y="19.9113" width="48.355" height="304.261" rx="24.1775" fill="#F15F59"/>
<rect x="0.710938" y="350.854" width="151.043" height="30.959" rx="15.4795" fill="#3E3131"/>
<rect x="0.710938" y="350.854" width="61.5423" height="30.959" rx="15.4795" fill="#614C4C" fill-opacity="0.45"/>
<rect x="10.6699" y="0.800476" width="131.129" height="46.4738" rx="7" fill="#EEF0FF"/>
<path d="M10.6699 7.80048C10.6699 3.93448 13.8039 0.800476 17.6699 0.800476H69.2349C73.1009 0.800476 76.2349 3.93448 76.2349 7.80048V47.2742H17.6699C13.8039 47.2742 10.6699 44.1402 10.6699 40.2742V7.80048Z" fill="#F9F9FF"/>
<circle cx="76.2327" cy="184.551" r="34.1194" fill="#EEF0FF"/>
<mask id="mask0_0_1" style="mask-type:alpha" maskUnits="userSpaceOnUse" x="42" y="150" width="69" height="69">
<circle cx="76.2327" cy="184.551" r="34.1194" fill="#EEF0FF"/>
</mask>
<g mask="url(#mask0_0_1)">
<rect x="37.5469" y="135.959" width="38.6895" height="96.0908" fill="#F9F9FF"/>
</g>
<path d="M96.3398 174.499C96.3398 174.499 92.9485 181.646 92.0307 185.304C90.8304 190.088 92.2048 193.705 90.4604 198.344C87.4451 203.787 87.2409 204.666 76.2364 204.654C72.2046 204.651 60.6545 201.575 60.6545 201.575C59.0621 201.166 56.1328 201.407 56.1328 199.629C56.1328 197.85 58.2169 196.551 60.0672 196.547L67.3573 197.187C69.128 197.076 70.9831 196.039 71.0395 193.723C71.01 190.294 70.671 187.662 68.9308 184.877L62.1735 174.334C61.7699 173.495 61.6739 172.064 62.8422 171.425C64.0104 170.786 65.3378 171.736 65.7911 172.563L73.3391 182.83C74.1448 183.58 75.5788 183.724 75.4565 182.128L72.1237 166.848C71.9161 165.762 72.4671 164.448 73.7236 164.448C75.3727 164.448 76.3869 165.077 76.3549 166.074L80.0196 181.15C80.3061 181.884 81.3217 181.786 81.5949 181.109L82.6388 166.448C82.6924 165.981 83.3024 165.165 84.4733 165.335C85.644 165.505 86.319 166.759 86.195 167.245L85.8563 181.73C86.094 183.014 87.1034 183.202 87.8889 182.485L93.017 173.314C93.3286 172.545 94.5489 172.384 95.2548 172.689C95.9115 173.117 96.3398 173.691 96.3398 174.499L96.3398 174.499Z" fill="#E24444"/>
</svg>
