<svg width="212" height="402" viewBox="0 0 212 402" fill="none" xmlns="http://www.w3.org/2000/svg">
<rect x="96.5664" y="20.1315" width="18.1484" height="381.723" fill="#3E3131"/>
<rect x="33.2266" y="12.6855" width="144.836" height="16.6844" fill="#3E3131"/>
<rect x="0.238281" y="2.65875" width="107.684" height="36.7378" rx="6" fill="#4D3D3D"/>
<rect x="18.4922" y="0.897522" width="5.69727" height="40.2602" rx="2.84863" fill="#3E3131"/>
<rect x="30.9824" y="0.897522" width="5.69727" height="40.2602" rx="2.84863" fill="#3E3131"/>
<rect x="43.4727" y="0.897522" width="5.69727" height="40.2602" rx="2.84863" fill="#3E3131"/>
<rect x="55.9629" y="0.897522" width="5.69727" height="40.2602" rx="2.84863" fill="#3E3131"/>
<rect x="96.5664" y="2.65875" width="114.479" height="36.7378" rx="6" fill="#4D3D3D"/>
<rect x="149.631" y="0.897522" width="5.69727" height="40.2602" rx="2.84863" fill="#3E3131"/>
<rect x="162.121" y="0.897522" width="5.69727" height="40.2602" rx="2.84863" fill="#3E3131"/>
<rect x="174.611" y="0.897522" width="5.69727" height="40.2602" rx="2.84863" fill="#3E3131"/>
<rect x="187.102" y="0.897522" width="5.69727" height="40.2602" rx="2.84863" fill="#3E3131"/>
</svg>