<svg width="40" height="40" viewBox="0 0 40 40" fill="none" xmlns="http://www.w3.org/2000/svg">
<path d="M2.10401 1.36725C2.37633 0.550716 3.14054 0 4.00128 0H35.9988C36.8595 0 37.6237 0.550669 37.896 1.36715L39.384 5.828C39.746 6.914 40.166 8.492 39.71 10.136C39.3864 11.3039 38.8017 12.3831 38 13.292V36V36C39.1046 36 40 36.8954 40 38V38C40 39.1046 39.1046 40 38 40H2C0.895431 40 1.54766e-08 39.1046 1.54766e-08 38V38C1.54766e-08 36.8954 0.895431 36 2 36V36V13.292C0.711047 11.8305 -0.000121136 9.94871 1.54766e-08 8V7.676L2.10401 1.36725ZM6 15.748V36H12V24C12 22.8954 12.8954 22 14 22H26C27.1046 22 28 22.8954 28 24V36H34V15.748C32.5698 16.1171 31.0653 16.083 29.6533 15.6495C28.2412 15.216 26.9768 14.4 26 13.292C25.2492 14.1432 24.3259 14.8248 23.2914 15.2917C22.257 15.7586 21.135 16.0001 20 16C18.865 16.0001 17.743 15.7586 16.7086 15.2917C15.6741 14.8248 14.7508 14.1432 14 13.292C13.0246 14.4019 11.7603 15.2192 10.3478 15.6528C8.93527 16.0864 7.43012 16.1194 6 15.748ZM16 8C16 9.06087 16.4214 10.0783 17.1716 10.8284C17.9217 11.5786 18.9391 12 20 12C21.0609 12 22.0783 11.5786 22.8284 10.8284C23.5786 10.0783 24 9.06087 24 8V4H16V8ZM12 4H5.44L4.01 8.292C4.088 9.358 4.58 10.308 5.334 10.982C5.9096 11.4966 6.62183 11.8336 7.38473 11.9524C8.14763 12.0711 8.92861 11.9666 9.63339 11.6513C10.3382 11.336 10.9367 10.8235 11.3566 10.1756C11.7765 9.52768 12 8.77209 12 8V4ZM28 4V8C27.9984 8.96846 28.3483 9.90459 28.9846 10.6347C29.621 11.3647 30.5006 11.8391 31.4602 11.9698C32.4198 12.1005 33.3942 11.8786 34.2026 11.3453C35.011 10.8121 35.5985 10.0036 35.856 9.07C35.974 8.644 35.908 8.046 35.59 7.092L34.558 4H28ZM24 36V26H16V36H24Z" fill="black"/>
</svg>
